<svg width="120" height="100" viewBox="0 0 120 100" fill="none" xmlns="http://www.w3.org/2000/svg">
<g clip-path="url(#clip0_19_88)">
<path d="M96.752 83.2315H22.755C22.6154 83.7287 22.4019 84.2944 22.1199 84.8601H97.3841C97.1022 84.2944 96.8915 83.7258 96.7491 83.2315H96.752ZM115.144 55.4658C112.75 50.6487 114.088 49.303 114.863 49.303C115.284 49.303 115.566 49.6572 115.073 50.083C114.581 50.5087 115.073 50.9315 115.708 50.9315C116.272 50.9315 116.836 50.6487 116.907 49.7972C116.907 48.2401 115.99 47.5315 115.076 47.5315C114.091 47.5315 113.103 48.3115 113.245 49.7287C113.316 50.3658 113.174 50.5772 113.034 50.5772C112.895 50.5772 112.613 50.223 112.471 49.8687C111.554 47.3201 111.625 43.7058 112.471 41.6515C112.117 41.5801 111.836 41.5087 111.554 41.5087C109.651 41.5087 109.651 44.1287 109.651 44.9087C109.651 45.263 109.512 45.4058 109.37 45.4058C109.088 45.4058 108.806 45.123 108.666 44.8401C108.384 44.1315 108.174 40.7315 109.159 37.403C108.877 37.3315 108.595 37.3315 108.384 37.3315C105.847 37.3315 106.2 40.803 106.34 41.5801C106.411 42.0058 106.2 42.1458 105.987 42.1458C105.705 42.1458 105.352 41.9344 105.212 41.5801C104.719 40.4458 103.592 36.1972 103.803 29.8944C103.874 28.4772 105.283 27.3458 106.622 27.3458C107.96 27.3458 109.298 28.1944 109.23 29.8944C109.23 30.8144 108.245 31.5944 107.61 31.5944H107.539C105.636 31.5944 105.565 29.9658 106.129 29.4687C106.269 29.3972 106.34 29.3258 106.482 29.3258C106.764 29.3258 106.904 29.6087 106.622 30.2458C106.55 30.3887 106.904 30.8115 107.325 30.8115C107.607 30.8115 107.889 30.6001 108.1 30.0315C108.381 29.183 107.536 28.2601 106.619 28.2601C105.773 28.2601 104.717 29.1801 104.717 30.0315C104.717 30.883 104.717 31.943 106.619 32.9344C106.972 33.1458 107.322 33.2172 107.746 33.2172C109.367 33.2172 111.129 31.8715 111.129 29.7458C111.129 27.1258 109.156 25.283 106.761 25.283H106.69C104.082 25.3544 101.969 27.1258 101.969 29.7458C101.969 30.5944 102.322 31.6572 102.604 32.3658C102.743 32.7915 102.604 33.003 102.322 33.003C102.111 33.003 101.969 32.8601 101.829 32.7201C101.194 31.9401 100.773 29.2487 100.773 29.2487C100.773 29.2487 98.3779 26.203 96.2622 26.203C95.4164 26.203 94.6419 26.7001 94.0781 28.0458C95.6984 28.1172 97.3186 27.903 99.8558 34.4915C105.07 48.303 106.269 45.0458 111.343 55.6001C111.343 55.6001 111.625 55.4572 112.117 55.4572H112.328C112.257 55.3144 112.257 55.2458 112.189 55.1744C111.132 53.263 109.933 51.3487 108.735 49.5087C107.536 47.5972 106.34 45.8258 105.28 44.1972C104.224 42.5687 103.378 41.0087 102.743 39.663C101.553 37.1401 101.171 35.4287 101.129 35.223C101.206 35.4201 101.727 37.1144 103.025 39.523C103.729 40.7972 104.645 42.2858 105.702 43.9144C106.758 45.543 108.028 47.243 109.224 49.1572C110.491 51.0687 111.619 52.983 112.607 54.8944C112.678 55.1058 112.818 55.2487 112.889 55.4601C113.592 55.603 114.438 56.0258 115.284 57.0172C114.791 57.6544 114.509 58.2201 114.299 58.7887C114.509 59.3544 114.72 59.8515 114.863 60.3458C115.426 61.9744 115.708 63.3915 115.848 64.383C115.89 64.9772 115.882 65.423 115.862 65.6801C115.862 65.4173 115.834 64.9801 115.708 64.383C115.569 63.3915 115.216 62.0458 114.581 60.4172C114.441 60.063 114.299 59.7087 114.159 59.3544C114.02 60.063 114.02 60.5572 114.088 60.7715C115.708 66.2972 114.934 66.3658 114.934 66.3658C111.48 61.2658 113.877 57.3001 113.877 57.3001C113.385 56.9458 112.61 56.5201 112.046 56.5201C111.482 56.5201 111.061 56.8744 111.272 58.0772C111.411 58.7144 111.625 59.1401 111.693 59.8487C111.693 60.2744 111.482 60.4144 111.201 60.4144C111.061 60.4144 110.847 60.343 110.847 60.203C110.212 56.0944 105.352 55.3144 105.352 55.3144C104.859 56.7315 104.648 57.723 105.423 59.563C105.915 60.6258 107.254 61.0515 107.536 61.263C107.818 61.4058 107.746 62.1115 107.254 62.1115H107.114C106.622 61.9687 106.269 61.9001 105.915 61.9001C103.871 61.9001 103.589 64.0972 103.589 64.0972H103.66C111.836 64.0972 115.569 69.6915 113.877 75.5715C113.667 76.2087 113.524 76.7744 113.313 77.343C113.313 77.343 114.299 72.5258 112.115 72.5258C113.524 76.1372 112.043 81.0258 111.622 81.7344C110.423 83.7887 108.168 84.7087 108.1 84.7087C110.494 83.363 110.002 77.5544 109.085 73.5887C108.521 71.0401 110.002 69.4087 110.002 69.4087C109.72 69.1972 109.438 69.1258 109.085 69.1258C108.168 69.1258 107.322 69.9058 107.536 71.9601C107.607 72.3144 107.396 72.4573 107.183 72.4573C106.969 72.4573 106.69 72.2458 106.69 71.9601C106.69 68.2058 103.096 68.1344 102.743 68.1344C102.743 68.1344 101.476 70.683 102.814 71.9601C104.435 73.4487 104.506 73.6601 102.814 73.8715C100.348 74.1544 100.206 75.0744 100.206 75.0744H100.909C108.45 75.0744 109.085 84.283 104.714 85.0601C104.432 85.1315 104.15 85.1315 103.868 85.1315C100.274 85.1315 98.2298 80.883 99.8501 79.9601C100.485 79.6058 100.978 79.463 101.331 79.463C102.387 79.463 102.387 80.5972 101.823 80.5972H101.752C100.061 80.5972 101.331 81.8001 102.527 81.8001C102.88 81.8001 103.301 81.7287 103.583 81.3744C104.711 80.1715 103.373 78.1858 101.117 78.1858H100.625C98.2298 78.4687 97.4525 80.8058 97.666 82.6487C97.8768 84.0658 99.497 87.6058 104.15 87.6058C104.996 87.6058 105.913 87.5344 106.898 87.2515C124.234 82.9315 117.961 61.4687 115.144 55.4487V55.4658ZM105.138 63.5401C105.138 63.5401 111.411 62.5487 114.159 67.8601C116.486 72.5344 114.159 76.7144 114.159 76.7144C116.836 67.7887 110.637 63.3287 105.138 63.5401ZM101.12 86.2773C109.085 87.623 117.821 82.1687 117.753 69.0658C119.302 86.4201 103.8 88.1887 101.12 86.2773ZM14.3689 44.2744C13.3124 45.9744 12.1136 47.7458 10.9148 49.5858C9.64759 51.4972 8.44876 53.4115 7.46065 55.2515C7.38946 55.3944 7.38946 55.463 7.32112 55.5344H7.53184C8.02447 55.5344 8.30638 55.6772 8.30638 55.6772C13.3808 45.123 14.5796 48.383 19.7935 34.5687C22.2595 27.9115 23.9509 28.1944 25.5712 28.123C25.0074 26.7772 24.2328 26.2801 23.3871 26.2801C21.2742 26.2801 18.8766 29.3258 18.8766 29.3258C18.8766 29.3258 18.4551 32.0172 17.8201 32.7972C17.6806 33.0087 17.467 33.0801 17.3275 33.0801C17.0456 33.0801 16.906 32.8687 17.0456 32.443C17.3275 31.7344 17.6806 30.6715 17.6806 29.823C17.6806 27.1315 15.5677 25.4315 12.9593 25.3601H12.8881C10.4933 25.3601 8.51995 27.203 8.51995 29.823C8.51995 31.9487 10.2826 33.2944 11.9029 33.2944C12.256 33.2944 12.6774 33.223 13.0305 33.0115C15.0039 32.0201 14.9327 30.9572 14.9327 30.1087C14.9327 29.2601 13.8762 28.3372 13.0305 28.3372C12.1136 28.3372 11.2679 29.2572 11.5498 30.1087C11.7605 30.6744 12.0424 30.8887 12.3243 30.8887C12.7457 30.8887 13.0988 30.463 13.0277 30.323C12.8169 29.6858 12.9565 29.403 13.1672 29.403C13.2384 29.403 13.3779 29.403 13.5203 29.5458C14.0841 30.043 14.0129 31.6715 12.1107 31.6715H12.0395C11.4045 31.6715 10.4905 30.8915 10.4193 29.9715C10.3481 28.2715 11.6864 27.423 13.0277 27.423C14.3689 27.423 15.7756 28.5572 15.8468 29.9715C16.0575 36.2058 14.9298 40.5258 14.4372 41.6572C14.2977 42.0115 13.9446 42.223 13.6627 42.223C13.3808 42.223 13.2412 42.0801 13.3096 41.6572C13.4491 40.8087 13.8022 37.4087 11.265 37.4087C11.0543 37.4087 10.7724 37.4087 10.4905 37.4801C11.4074 40.8087 11.265 44.2801 10.9831 44.9172C10.8436 45.2001 10.4905 45.483 10.2797 45.483C10.1402 45.483 9.99784 45.3401 9.99784 44.9858C9.99784 44.2058 9.99784 41.5858 8.09566 41.5858C7.81375 41.5858 7.53184 41.6572 7.17874 41.7287C7.95328 43.783 8.09566 47.3944 7.17874 49.9458C7.03921 50.3001 6.82564 50.6544 6.61492 50.6544C6.47539 50.6544 6.33301 50.443 6.4042 49.8058C6.54373 48.3887 5.55847 47.6087 4.57321 47.6087C3.6563 47.6087 2.74222 48.3172 2.74222 49.8744C2.81341 50.723 3.37723 51.0087 3.94105 51.0087C4.57606 51.0087 5.06869 50.6544 4.57606 50.1601C4.15462 49.7344 4.36534 49.3801 4.78678 49.3801C5.56132 49.3801 6.83134 50.7258 4.50487 55.543C1.54624 61.563 -4.72696 82.9544 12.6091 87.2744C13.5943 87.4858 14.5112 87.6287 15.357 87.6287C20.0071 87.6287 21.6302 84.0858 21.9804 82.6715C22.1911 80.8287 21.4166 78.4915 19.0218 78.2087H18.5292C16.2739 78.2087 14.9355 80.1201 16.0632 81.3973C16.3451 81.6801 16.7665 81.823 17.1196 81.823C18.3184 81.823 19.5144 80.6201 17.8942 80.6201H17.823C17.2591 80.6201 17.2591 79.4858 18.3156 79.4858C18.6687 79.4858 19.1613 79.6287 19.7963 79.983C21.4166 80.903 19.3749 85.1544 15.7784 85.1544C15.4965 85.1544 15.2146 85.1544 14.9327 85.083C10.5645 84.303 11.1967 75.0972 18.737 75.0972H19.4404C19.4404 75.0972 19.2297 74.1772 16.832 73.8944C15.0694 73.683 15.2117 73.4687 16.832 71.983C18.1704 70.7087 16.9032 68.1572 16.9032 68.1572C16.5501 68.1572 12.9565 68.3001 12.9565 71.983C12.9565 72.3372 12.6746 72.4801 12.4638 72.4801C12.2531 72.4801 12.1107 72.3372 12.1107 71.983C12.3215 69.9287 11.4757 69.1487 10.5617 69.1487C10.2797 69.1487 9.92665 69.2915 9.64474 69.4315C9.64474 69.4315 11.1255 71.1315 10.5617 73.6115C9.64474 77.6487 9.15211 83.3858 11.5469 84.7315C11.4757 84.7315 9.22045 83.8115 8.02447 81.7572C7.60303 81.0487 6.19348 76.163 7.53184 72.5487C5.34775 72.5487 6.33301 77.3658 6.33301 77.3658C6.12229 76.8001 5.91157 76.2315 5.76919 75.5944C4.07774 69.7144 7.81375 64.1201 15.9863 64.1201H16.0575C16.0575 64.1201 15.8467 61.923 13.731 61.923C13.3779 61.923 12.9565 61.9944 12.5322 62.1344H12.3926C11.9 62.1344 11.8288 61.4258 12.1107 61.2858C12.4638 61.143 13.731 60.6487 14.2236 59.5858C15.0694 57.6744 14.7875 56.683 14.2948 55.3372C14.2948 55.3372 9.43117 56.1172 8.79901 60.2258C8.79901 60.3687 8.58829 60.4372 8.44591 60.4372C8.164 60.4372 7.88209 60.2944 7.95328 59.8715C8.02447 59.163 8.30638 58.6687 8.37472 58.1001C8.58544 56.8972 8.164 56.543 7.60018 56.543C6.96517 56.543 6.19063 56.9687 5.76919 57.323C5.76919 57.323 8.164 61.2887 4.71274 66.3887C4.71274 66.3887 3.9382 66.3172 5.55847 60.7944C5.62966 60.583 5.62966 60.0144 5.48728 59.3773C5.34775 59.7315 5.20537 60.0858 5.06584 60.4401C4.50202 61.9972 4.08058 63.4144 3.93821 64.4058C3.76166 65.2287 3.78444 65.7515 3.79013 65.9144C3.75596 65.7658 3.67623 65.2344 3.79583 64.4058C3.93536 63.4144 4.21727 61.9972 4.78109 60.3687C4.92062 59.943 5.13419 59.3772 5.34491 58.8801C5.13419 58.3144 4.85228 57.7458 4.35965 57.1087C5.20537 56.1172 6.0511 55.6915 6.75445 55.5515C6.82564 55.4087 6.96517 55.1972 7.03636 54.9858C8.02162 53.0744 9.14926 51.1601 10.4193 49.2487C11.6181 47.3372 12.8853 45.6372 13.9417 44.0058C14.9982 42.3772 15.9151 40.8887 16.6184 39.6144C17.8942 37.3115 18.4238 35.6487 18.5064 35.343C18.4295 35.663 18.028 37.3744 16.9004 39.7544C16.2653 41.1001 15.4196 42.6572 14.3632 44.2887L14.3689 44.2744ZM5.34775 67.8601C8.09566 62.5487 14.3689 63.5401 14.3689 63.5401C8.87305 63.3287 2.67104 67.7887 5.34775 76.7144C5.34775 76.7144 3.02129 72.5344 5.34775 67.8601ZM18.3868 86.2773C15.7101 88.1887 0.205038 86.4201 1.75412 69.0658C1.68293 82.1687 10.4221 87.623 18.3868 86.2773ZM96.3989 29.9658H75.4977C75.3154 30.5258 75.0876 31.0715 74.8484 31.5944H97.4553C97.1022 30.8858 96.752 30.3201 96.3989 29.9658ZM44.257 29.9658H23.0369C22.6838 30.3915 22.3335 30.8858 21.9804 31.5944H44.9746C44.6983 31.0715 44.4592 30.5258 44.257 29.9658Z" fill="#D7B66E"/>
<path d="M16.0204 86.4743C16.8092 86.4743 17.6009 86.4086 18.3839 86.2743C17.8571 86.6514 16.832 86.8857 15.5364 86.8857C10.5702 86.8857 1.64306 83.4457 1.64306 71.4286C1.64306 70.6743 1.67723 69.8857 1.75127 69.0629C1.75127 69.1143 1.75127 69.1657 1.75127 69.2172C1.75127 80.9257 8.81894 86.4714 16.0204 86.4714V86.4743ZM12.7856 63.4714C11.1511 63.5286 8.5712 63.98 6.64624 66.0172C6.16501 66.5257 5.72363 67.1343 5.34775 67.86C4.57321 69.42 4.31408 70.9229 4.31408 72.2343C4.31408 74.8572 5.34775 76.7143 5.34775 76.7143C4.90353 75.2372 4.7042 73.88 4.7042 72.6486C4.7042 71.8943 4.77824 71.1857 4.92062 70.5229C5.90018 65.8886 10.069 63.5314 13.993 63.5314C14.1183 63.5314 14.2436 63.5314 14.3689 63.54C14.3689 63.54 13.9047 63.4657 13.1757 63.4657C13.0533 63.4657 12.9251 63.4657 12.7885 63.4714H12.7856ZM98.3694 86.1343H21.2742C20.0754 87.48 18.102 88.6143 15.4253 88.6143C14.5084 88.6143 13.5231 88.4714 12.4667 88.1886C7.32112 86.9143 3.72748 84.08 1.75412 79.8314C-2.33215 71.0486 1.75412 58.9372 3.65629 55.04C4.35964 53.5514 4.64155 52.56 4.78393 51.7829C4.57321 51.8543 4.2913 51.9257 4.00939 51.9257C2.81057 51.9257 1.8965 51.0772 1.82531 49.8714C1.82531 48.6686 2.31794 47.8886 2.67104 47.4629C3.16366 46.8972 3.86986 46.6143 4.6444 46.6143C5.49013 46.6143 6.19348 46.9686 6.7573 47.5343C7.03921 45.48 6.7573 43.3543 6.26467 42.08L5.84323 41.0886L6.89968 40.7343C7.32112 40.5914 7.74541 40.5229 8.09851 40.5229C8.80186 40.5229 9.43686 40.8057 9.92949 41.3029C10.0007 41.3743 10.069 41.4457 10.1402 41.5143C10.069 40.38 9.92949 39.0343 9.50521 37.6886L9.2233 36.6972L10.2797 36.4857C10.6328 36.4143 10.9831 36.3429 11.265 36.3429C12.1819 36.3429 12.9565 36.6972 13.5203 37.3343C13.8022 37.6886 14.0129 38.1143 14.1553 38.6086C14.4372 37.1914 14.7191 35.2086 14.7903 32.8714C14.4372 33.1543 14.0158 33.5086 13.4519 33.7914C12.9593 34.0029 12.3955 34.1457 11.8317 34.1457C9.71877 34.1457 7.4635 32.3743 7.4635 29.6829C7.4635 28.1257 8.02732 26.7086 9.01258 25.7172C9.99784 24.7257 11.4074 24.16 12.8169 24.16H12.8881C15.636 24.2314 17.7518 25.7886 18.3839 28.0543C19.2297 27.0629 21.2742 25.08 23.3159 25.08C24.2328 25.08 25.5712 25.5057 26.4169 27.56L26.8384 28.6229H43.807C43.8127 28.6572 43.8213 28.6857 43.8355 28.7143C43.8839 28.9057 43.9494 29.0972 44.0035 29.28C44.0804 29.5143 44.1573 29.74 44.2513 29.9657H23.0312C22.6781 30.3914 22.3278 30.8857 21.9747 31.5943H44.9689C44.9746 31.6229 44.9888 31.6514 45.0116 31.6714C45.0828 31.8143 45.1596 31.9543 45.2365 32.0972C45.322 32.2657 45.4131 32.4314 45.5184 32.5857C45.6096 32.7486 45.7092 32.9057 45.806 33.0543C45.8829 33.1886 45.9684 33.3172 46.068 33.4514C46.1876 33.6343 46.3215 33.82 46.4553 33.9972C46.4838 34.04 46.5179 34.0829 46.555 34.1257C46.6945 34.3172 46.8426 34.5086 46.9992 34.6914C47.0049 34.7057 47.0134 34.7114 47.0277 34.72C47.3039 35.0457 47.5858 35.3657 47.8876 35.6686C47.8933 35.6829 47.9076 35.6972 47.9303 35.7114C48.0499 35.8457 48.1838 35.9743 48.3176 36.0943C48.3233 36.1086 48.3375 36.1229 48.3518 36.1286C48.4799 36.2572 48.6138 36.3772 48.7476 36.4886C48.9669 36.6857 49.1833 36.8772 49.4168 37.0543C49.5648 37.1829 49.7186 37.2943 49.8752 37.4086C50.0945 37.5772 50.3251 37.7429 50.5672 37.8972C50.7637 38.04 50.9687 38.1657 51.1794 38.2857C52.2643 38.9514 53.4404 39.4972 54.6819 39.9C54.8101 39.9429 54.9354 39.9857 55.0635 40.02C55.2315 40.0686 55.4024 40.12 55.5704 40.1629C56.1684 40.3257 56.7749 40.4543 57.3957 40.5457C57.5921 40.5743 57.7972 40.6029 58.0022 40.6172C58.0307 40.6229 58.0648 40.6314 58.0933 40.6314C58.1987 40.6457 58.304 40.6514 58.4179 40.66C58.5717 40.68 58.7283 40.6886 58.8821 40.6943C59.0017 40.7086 59.1298 40.7143 59.2494 40.7143C59.4687 40.72 59.6851 40.7286 59.9044 40.7286C60.1236 40.7286 60.3543 40.7229 60.5821 40.7143C60.7159 40.7143 60.8441 40.7086 60.9694 40.6943C61.1317 40.6886 61.2854 40.68 61.4421 40.6657C62.0116 40.6172 62.5697 40.5457 63.1136 40.44C63.2474 40.4257 63.3756 40.3972 63.5009 40.3686C63.9223 40.2829 64.3409 40.1857 64.7481 40.0629C64.9019 40.02 65.0642 39.9772 65.2208 39.92C65.9327 39.7 66.6161 39.4314 67.2796 39.1114C67.963 38.7914 68.6179 38.4257 69.2444 38.02C69.6801 37.7372 70.1044 37.4314 70.5059 37.1C70.7109 36.9429 70.9074 36.7743 71.1039 36.5972C71.6819 36.08 72.2173 35.5286 72.7184 34.9257C72.7184 34.92 72.7241 34.92 72.7327 34.9114C72.8865 34.7143 73.0488 34.5143 73.1968 34.3172C73.5129 33.9057 73.8034 33.4743 74.071 33.0286C74.2049 32.8086 74.3387 32.5829 74.4583 32.3486C74.5865 32.1143 74.6975 31.88 74.8171 31.6486C74.8228 31.6286 74.8313 31.6143 74.8456 31.5914H97.4525C97.0993 30.8829 96.7491 30.3172 96.396 29.9629H75.4948C75.5717 29.7429 75.6429 29.5229 75.7141 29.2972C75.7853 29.0772 75.8479 28.8429 75.9049 28.6172H92.734L93.1555 27.5543C94.0012 25.5 95.2684 25.0743 96.2565 25.0743C98.301 25.0743 100.343 27.1286 101.188 28.0486C101.823 25.7829 103.936 24.2229 106.684 24.1543H106.755C108.236 24.1543 109.575 24.72 110.56 25.7114C111.545 26.7743 112.109 28.1914 112.109 29.6772C112.109 32.3686 109.854 34.14 107.741 34.14C107.177 34.14 106.613 34.0686 106.12 33.7857C105.557 33.5029 105.135 33.1486 104.782 32.8657C104.853 35.2029 105.135 37.1143 105.417 38.6029C105.557 38.1772 105.77 37.6829 106.052 37.3286C106.616 36.6914 107.39 36.3372 108.307 36.3372C108.589 36.3372 108.942 36.4086 109.293 36.48L110.349 36.6914L110.067 37.6829C109.714 39.0286 109.503 40.3743 109.432 41.5086C109.503 41.4372 109.572 41.3657 109.643 41.2972C110.136 40.8 110.771 40.5172 111.474 40.5172C111.827 40.5172 112.248 40.5886 112.673 40.7286L113.729 41.0829L113.308 42.0743C112.815 43.3486 112.533 45.4743 112.815 47.5286C113.379 46.9629 114.153 46.6086 114.928 46.6086C115.703 46.6086 116.409 46.8914 116.901 47.4572C117.323 47.8829 117.747 48.5914 117.747 49.8657C117.676 51.0686 116.762 51.92 115.563 51.92C115.281 51.92 114.999 51.8486 114.788 51.7772C114.86 52.5572 115.21 53.62 115.916 55.0343C117.818 59 121.907 71.0429 117.889 79.8257C115.916 84.0743 112.322 86.9086 107.177 88.1829C106.192 88.4657 105.132 88.6086 104.218 88.6086C101.47 88.6086 99.5682 87.4743 98.3694 86.1286V86.1343ZM19.0189 78.2H18.5263C16.271 78.2 14.9327 80.1114 16.0603 81.3886C16.3422 81.6714 16.7637 81.8143 17.1168 81.8143C18.3156 81.8143 19.5116 80.6114 17.8913 80.6114H17.8201C17.2563 80.6114 17.2563 79.4772 18.3127 79.4772C18.6658 79.4772 19.1585 79.62 19.7935 79.9743C21.4138 80.8943 19.372 85.1457 15.7756 85.1457C15.4936 85.1457 15.2117 85.1457 14.9298 85.0743C10.5617 84.2943 11.1938 75.0886 18.7342 75.0886H19.4375C19.4375 75.0886 19.2268 74.1686 16.8292 73.8857C15.0665 73.6743 15.2089 73.46 16.8292 71.9743C18.1675 70.7 16.9003 68.1486 16.9003 68.1486C16.5472 68.1486 12.9536 68.2914 12.9536 71.9743C12.9536 72.3286 12.6717 72.4714 12.461 72.4714C12.2503 72.4714 12.1079 72.3286 12.1079 71.9743C12.3186 69.92 11.4729 69.14 10.5588 69.14C10.2769 69.14 9.9238 69.2829 9.64189 69.4229C9.64189 69.4229 11.1226 71.1229 10.5588 73.6029C9.64189 77.64 9.14926 83.3772 11.5441 84.7229C11.4729 84.7229 9.2176 83.8029 8.02162 81.7486C7.60018 81.04 6.19063 76.1543 7.52899 72.54C5.3449 72.54 6.33016 77.3572 6.33016 77.3572C6.11944 76.7914 5.90872 76.2229 5.76635 75.5857C4.07489 69.7057 7.8109 64.1114 15.9834 64.1114H16.0546C16.0546 64.1114 15.8439 61.9143 13.7282 61.9143C13.3751 61.9143 12.9536 61.9857 12.5293 62.1257H12.3898C11.8972 62.1257 11.826 61.4172 12.1079 61.2772C12.461 61.1343 13.7282 60.64 14.2208 59.5772C15.0665 57.6657 14.7846 56.6743 14.292 55.3286C14.292 55.3286 9.42832 56.1086 8.79616 60.2172C8.79616 60.36 8.58544 60.4286 8.44306 60.4286C8.16115 60.4286 7.87924 60.2857 7.95043 59.8629C8.02162 59.1543 8.30353 58.66 8.37187 58.0914C8.58259 56.8886 8.16115 56.5343 7.59733 56.5343C6.96233 56.5343 6.18779 56.96 5.76635 57.3143C5.76635 57.3143 8.16115 61.28 4.7099 66.38C4.7099 66.38 3.93536 66.3086 5.55562 60.7857C5.62681 60.5743 5.62681 60.0057 5.48444 59.3686C5.3449 59.7229 5.20253 60.0772 5.06299 60.4314C4.49918 61.9886 4.07773 63.4057 3.93536 64.3972C3.75881 65.22 3.78159 65.7429 3.78728 65.9057C3.75311 65.7572 3.67338 65.2257 3.79298 64.3972C3.93251 63.4057 4.21442 61.9886 4.77824 60.36C4.91777 59.9343 5.13134 59.3686 5.34206 58.8714C5.13134 58.3057 4.84943 57.7372 4.3568 57.1C5.20253 56.1086 6.04825 55.6829 6.7516 55.5429C6.82279 55.4 6.96233 55.1886 7.03351 54.9772C8.01877 53.0657 9.14641 51.1514 10.4164 49.24C11.6153 47.3286 12.8824 45.6286 13.9389 43.9972C14.9953 42.3686 15.9122 40.88 16.6156 39.6057C17.8913 37.3029 18.421 35.64 18.5035 35.3343C18.4266 35.6543 18.0251 37.3657 16.8975 39.7457C16.2625 41.0914 15.4168 42.6486 14.3603 44.28C13.3039 45.98 12.105 47.7514 10.9062 49.5914C9.63904 51.5029 8.44021 53.4172 7.45211 55.2572C7.38092 55.4 7.38092 55.4686 7.31258 55.54H7.5233C8.01593 55.54 8.29784 55.6829 8.29784 55.6829C13.3722 45.1286 14.571 48.3886 19.7849 34.5743C22.2509 27.9172 23.9424 28.2 25.5627 28.1286C24.9988 26.7829 24.2243 26.2857 23.3786 26.2857C21.2657 26.2857 18.868 29.3314 18.868 29.3314C18.868 29.3314 18.4466 32.0229 17.8116 32.8029C17.672 33.0143 17.4585 33.0857 17.3189 33.0857C17.037 33.0857 16.8975 32.8743 17.037 32.4486C17.3189 31.74 17.672 30.6772 17.672 29.8286C17.672 27.1372 15.5591 25.4372 12.9508 25.3657H12.8796C10.4848 25.3657 8.5114 27.2086 8.5114 29.8286C8.5114 31.9543 10.274 33.3 11.8943 33.3C12.2474 33.3 12.6689 33.2286 13.022 33.0172C14.9953 32.0257 14.9241 30.9629 14.9241 30.1143C14.9241 29.2657 13.8677 28.3429 13.022 28.3429C12.105 28.3429 11.2593 29.2629 11.5412 30.1143C11.7519 30.68 12.0338 30.8943 12.3158 30.8943C12.7372 30.8943 13.0903 30.4686 13.0191 30.3286C12.8084 29.6914 12.9479 29.4086 13.1586 29.4086C13.2298 29.4086 13.3694 29.4086 13.5117 29.5514C14.0756 30.0486 14.0044 31.6772 12.1022 31.6772H12.031C11.396 31.6772 10.4819 30.8972 10.4107 29.9772C10.3395 28.2772 11.6779 27.4286 13.0191 27.4286C14.3603 27.4286 15.767 28.5629 15.8382 29.9772C16.0489 36.2114 14.9213 40.5314 14.4287 41.6629C14.2891 42.0172 13.936 42.2286 13.6541 42.2286C13.3722 42.2286 13.2327 42.0857 13.301 41.6629C13.4405 40.8143 13.7936 37.4143 11.2565 37.4143C11.0457 37.4143 10.7638 37.4143 10.4819 37.4857C11.3988 40.8143 11.2565 44.2857 10.9746 44.9229C10.835 45.2057 10.4819 45.4886 10.2712 45.4886C10.1317 45.4886 9.98929 45.3457 9.98929 44.9914C9.98929 44.2114 9.98929 41.5914 8.08712 41.5914C7.80521 41.5914 7.5233 41.6629 7.1702 41.7343C7.94474 43.7886 8.08712 47.4 7.1702 49.9514C7.03067 50.3057 6.8171 50.66 6.60638 50.66C6.46685 50.66 6.32447 50.4486 6.39566 49.8114C6.53519 48.3943 5.54993 47.6143 4.56467 47.6143C3.64775 47.6143 2.73368 48.3229 2.73368 49.88C2.80487 50.7286 3.36869 51.0143 3.93251 51.0143C4.56752 51.0143 5.06015 50.66 4.56752 50.1657C4.14608 49.74 4.3568 49.3857 4.77824 49.3857C5.55278 49.3857 6.82279 50.7314 4.49633 55.5486C1.5377 61.5686 -4.7355 82.96 12.6005 87.28C13.5858 87.4914 14.5027 87.6343 15.3484 87.6343C19.9985 87.6343 21.6216 84.0914 21.9719 82.6772C22.1826 80.8343 21.4081 78.4972 19.0132 78.2143L19.0189 78.2ZM97.3841 84.8572C97.1022 84.2914 96.8915 83.7229 96.7491 83.2286H22.755C22.6154 83.7257 22.4019 84.2914 22.1199 84.8572H97.3841ZM97.666 82.6629C97.8767 84.08 99.497 87.62 104.15 87.62C104.996 87.62 105.913 87.5486 106.898 87.2657C124.234 82.9457 117.961 61.4829 115.144 55.4629C112.75 50.6457 114.088 49.3 114.862 49.3C115.284 49.3 115.566 49.6543 115.073 50.08C114.581 50.5057 115.073 50.9286 115.708 50.9286C116.272 50.9286 116.836 50.6457 116.907 49.7943C116.907 48.2372 115.99 47.5286 115.076 47.5286C114.091 47.5286 113.103 48.3086 113.245 49.7257C113.316 50.3629 113.174 50.5743 113.034 50.5743C112.895 50.5743 112.613 50.22 112.471 49.8657C111.554 47.3172 111.625 43.7029 112.471 41.6486C112.117 41.5772 111.836 41.5057 111.554 41.5057C109.651 41.5057 109.651 44.1257 109.651 44.9057C109.651 45.26 109.512 45.4029 109.37 45.4029C109.088 45.4029 108.806 45.12 108.666 44.8372C108.384 44.1286 108.174 40.7286 109.159 37.4C108.877 37.3286 108.595 37.3286 108.384 37.3286C105.847 37.3286 106.2 40.8 106.34 41.5772C106.411 42.0029 106.2 42.1429 105.987 42.1429C105.705 42.1429 105.352 41.9314 105.212 41.5772C104.719 40.4429 103.592 36.1943 103.803 29.8914C103.874 28.4743 105.283 27.3429 106.622 27.3429C107.96 27.3429 109.298 28.1914 109.23 29.8914C109.23 30.8114 108.245 31.5914 107.61 31.5914H107.539C105.636 31.5914 105.565 29.9629 106.129 29.4657C106.269 29.3943 106.34 29.3229 106.482 29.3229C106.764 29.3229 106.904 29.6057 106.622 30.2429C106.55 30.3857 106.904 30.8086 107.325 30.8086C107.607 30.8086 107.889 30.5972 108.1 30.0286C108.381 29.18 107.536 28.2572 106.619 28.2572C105.773 28.2572 104.717 29.1772 104.717 30.0286C104.717 30.88 104.717 31.94 106.619 32.9314C106.972 33.1429 107.322 33.2143 107.746 33.2143C109.367 33.2143 111.129 31.8686 111.129 29.7429C111.129 27.1229 109.156 25.28 106.761 25.28H106.69C104.082 25.3514 101.969 27.1229 101.969 29.7429C101.969 30.5914 102.322 31.6543 102.604 32.3629C102.743 32.7886 102.604 33 102.322 33C102.111 33 101.969 32.8572 101.829 32.7172C101.194 31.9372 100.773 29.2457 100.773 29.2457C100.773 29.2457 98.3779 26.2 96.2622 26.2C95.4164 26.2 94.6419 26.6972 94.0781 28.0429C95.6983 28.1143 97.3186 27.9 99.8558 34.4886C105.07 48.3 106.269 45.0429 111.343 55.5972C111.343 55.5972 111.625 55.4543 112.117 55.4543H112.328C112.257 55.3114 112.257 55.2429 112.189 55.1714C111.132 53.26 109.933 51.3457 108.735 49.5057C107.536 47.5943 106.34 45.8229 105.28 44.1943C104.224 42.5657 103.378 41.0057 102.743 39.66C101.553 37.1372 101.171 35.4257 101.129 35.22C101.206 35.4172 101.727 37.1114 103.025 39.52C103.728 40.7943 104.645 42.2829 105.702 43.9114C106.758 45.54 108.028 47.24 109.224 49.1543C110.491 51.0657 111.619 52.98 112.607 54.8914C112.678 55.1029 112.818 55.2457 112.889 55.4572C113.592 55.6 114.438 56.0229 115.284 57.0143C114.791 57.6514 114.509 58.2172 114.299 58.7857C114.509 59.3514 114.72 59.8486 114.862 60.3429C115.426 61.9714 115.708 63.3886 115.848 64.38C115.89 64.9743 115.882 65.42 115.862 65.6772C115.862 65.4143 115.834 64.9772 115.708 64.38C115.569 63.3886 115.216 62.0429 114.581 60.4143C114.441 60.06 114.299 59.7057 114.159 59.3514C114.02 60.06 114.02 60.5543 114.088 60.7686C115.708 66.2943 114.934 66.3629 114.934 66.3629C111.48 61.2629 113.877 57.2972 113.877 57.2972C113.385 56.9429 112.61 56.5172 112.046 56.5172C111.482 56.5172 111.061 56.8714 111.272 58.0743C111.411 58.7114 111.625 59.1372 111.693 59.8457C111.693 60.2714 111.482 60.4114 111.201 60.4114C111.061 60.4114 110.847 60.34 110.847 60.2C110.212 56.0914 105.352 55.3114 105.352 55.3114C104.859 56.7286 104.648 57.72 105.423 59.56C105.915 60.6229 107.254 61.0486 107.536 61.26C107.818 61.4029 107.746 62.1086 107.254 62.1086H107.114C106.622 61.9657 106.269 61.8972 105.915 61.8972C103.871 61.8972 103.589 64.0943 103.589 64.0943H103.66C111.836 64.0943 115.569 69.6886 113.877 75.5686C113.667 76.2057 113.524 76.7714 113.313 77.34C113.313 77.34 114.299 72.5229 112.115 72.5229C113.524 76.1343 112.043 81.0229 111.622 81.7314C110.423 83.7857 108.168 84.7057 108.1 84.7057C110.494 83.36 110.002 77.5514 109.085 73.5857C108.521 71.0372 110.002 69.4057 110.002 69.4057C109.72 69.1943 109.438 69.1229 109.085 69.1229C108.168 69.1229 107.322 69.9029 107.536 71.9572C107.607 72.3114 107.396 72.4543 107.183 72.4543C106.969 72.4543 106.69 72.2429 106.69 71.9572C106.69 68.2029 103.096 68.1314 102.743 68.1314C102.743 68.1314 101.476 70.68 102.814 71.9572C104.435 73.4457 104.506 73.6572 102.814 73.8686C100.348 74.1514 100.206 75.0714 100.206 75.0714H100.909C108.45 75.0714 109.085 84.28 104.714 85.0572C104.432 85.1286 104.15 85.1286 103.868 85.1286C100.274 85.1286 98.2298 80.88 99.8501 79.9572C100.485 79.6029 100.978 79.46 101.331 79.46C102.387 79.46 102.387 80.5943 101.823 80.5943H101.752C100.061 80.5943 101.331 81.7972 102.527 81.7972C102.88 81.7972 103.301 81.7257 103.583 81.3714C104.711 80.1686 103.373 78.1829 101.117 78.1829H100.625C98.2298 78.4657 97.4525 80.8029 97.666 82.6457V82.6629ZM101.117 86.2743C101.644 86.6514 102.669 86.8857 103.965 86.8857C108.931 86.8857 117.858 83.4457 117.858 71.4286C117.858 70.6743 117.824 69.8857 117.75 69.0629C117.75 69.1143 117.75 69.1657 117.75 69.2172C117.75 80.9257 110.682 86.4714 103.481 86.4714C102.692 86.4714 101.9 86.4057 101.117 86.2714V86.2743ZM114.156 67.86C112.154 63.9914 108.285 63.4657 106.328 63.4657C105.599 63.4657 105.135 63.54 105.135 63.54C105.26 63.5343 105.386 63.5314 105.511 63.5314C109.435 63.5314 113.604 65.8857 114.583 70.5229C114.723 71.1857 114.8 71.8943 114.8 72.6486C114.8 73.88 114.601 75.2372 114.156 76.7143C114.156 76.7143 115.19 74.8572 115.19 72.2343C115.19 70.9229 114.931 69.4172 114.156 67.86Z" fill="#D31C32"/>
<path d="M117.75 69.0656C117.821 82.1685 109.082 87.6228 101.117 86.2771C103.794 88.1885 119.299 86.4199 117.75 69.0656ZM114.156 76.7142C114.156 76.7142 116.483 72.5342 114.156 67.8599C111.408 62.5485 105.135 63.5399 105.135 63.5399C110.631 63.3285 116.833 67.7885 114.156 76.7142ZM1.75416 69.0656C0.205081 86.4199 15.7073 88.1885 18.3868 86.2771C10.4222 87.6228 1.68582 82.1685 1.75416 69.0656ZM14.3689 63.5399C14.3689 63.5399 8.0957 62.5485 5.34779 67.8599C3.02133 72.5342 5.34779 76.7142 5.34779 76.7142C2.67108 67.7885 8.87024 63.3285 14.3689 63.5399ZM115.919 55.0399C115.216 53.6228 114.863 52.5599 114.791 51.7828C115.002 51.8542 115.284 51.9256 115.566 51.9256C116.765 51.9256 117.679 51.0771 117.75 49.8713C117.75 48.5971 117.329 47.8885 116.904 47.4628C116.412 46.8971 115.705 46.6142 114.931 46.6142C114.156 46.6142 113.382 46.9685 112.818 47.5342C112.536 45.4799 112.818 43.3542 113.311 42.0799L113.732 41.0885L112.676 40.7342C112.254 40.5913 111.83 40.5228 111.477 40.5228C110.773 40.5228 110.138 40.8056 109.646 41.3028C109.575 41.3742 109.506 41.4456 109.435 41.5142C109.506 40.3799 109.717 39.0342 110.07 37.6885L110.352 36.6971L109.296 36.4856C108.942 36.4142 108.592 36.3428 108.31 36.3428C107.393 36.3428 106.619 36.6971 106.055 37.3342C105.773 37.6885 105.562 38.1828 105.42 38.6085C105.138 37.1199 104.856 35.2085 104.785 32.8713C105.138 33.1542 105.56 33.5085 106.123 33.7913C106.616 34.0742 107.18 34.1456 107.744 34.1456C109.856 34.1456 112.112 32.3742 112.112 29.6828C112.112 28.1942 111.548 26.7799 110.563 25.7171C109.577 24.7256 108.236 24.1599 106.758 24.1599H106.687C103.939 24.2313 101.824 25.7885 101.191 28.0542C100.346 27.1342 98.3011 25.0799 96.2594 25.0799C95.2741 25.0799 94.0041 25.5056 93.1583 27.5599L92.7369 28.6228H75.9078C75.8508 28.8485 75.7882 29.0828 75.717 29.3028C75.6458 29.5285 75.5774 29.7485 75.4977 29.9685H96.3989C96.752 30.3228 97.1022 30.8885 97.4553 31.5971H74.8485C74.8342 31.6171 74.8285 31.6313 74.82 31.6542C74.7004 31.8885 74.5865 32.1228 74.4612 32.3542C74.3473 32.5513 74.2419 32.7428 74.1223 32.9428H98.0903C98.3011 33.5085 98.583 34.0771 98.8649 34.7856C101.966 42.9313 103.657 45.2685 105.56 47.8171C106.898 49.6599 108.307 51.5713 110.423 55.9628L110.563 56.3171C110.492 56.4599 110.423 56.5999 110.352 56.8142C108.521 54.7599 105.702 54.3342 105.56 54.2656L104.714 54.1228L104.432 54.9028C103.939 56.4599 103.657 57.7371 104.571 59.8599C104.782 60.2856 104.993 60.6399 105.275 60.9228C103.444 61.2771 102.738 62.9771 102.598 63.9685L102.459 65.1028H103.657C107.322 65.1028 110.212 66.3056 111.904 68.5028C112.607 69.4942 113.103 70.5571 113.242 71.7599C112.889 71.5485 112.539 71.4771 112.186 71.4771H110.776L111.269 72.8228C112.468 75.8685 111.269 80.1171 110.916 81.0399C111.198 78.2771 110.634 75.0913 110.212 73.3199C109.791 71.4085 110.847 70.0628 110.916 70.0628L111.762 69.1428L110.634 68.5056C110.212 68.2942 109.717 68.1513 109.224 68.1513C108.521 68.1513 107.886 68.4342 107.393 68.9313C107.254 69.0742 107.183 69.2142 107.111 69.3571C106.619 68.5771 105.984 68.0828 105.42 67.7999C104.292 67.2342 103.165 67.1628 102.883 67.1628H102.179L101.898 67.7285C101.334 68.9313 100.699 71.3399 102.179 72.7571C102.251 72.8285 102.319 72.8999 102.461 72.9685C99.853 73.3942 99.4315 74.5971 99.3604 74.9513L99.1496 76.2256L100.417 76.1542H101.052C104.574 76.1542 106.337 78.4913 106.548 80.7571C106.687 82.1742 106.126 83.8742 104.645 84.1571C104.435 84.2285 104.224 84.2285 103.942 84.2285C102.533 84.2285 101.405 83.3799 100.77 82.3856C101.263 82.7399 101.898 82.9513 102.533 82.9513C103.236 82.9513 103.871 82.6685 104.295 82.1713C104.999 81.3913 105.141 80.3285 104.717 79.4085C104.153 78.1342 102.743 77.2828 101.052 77.2828C100.841 77.2828 100.63 77.2828 100.417 77.3542C99.218 77.4971 98.3039 78.0628 97.5977 78.9113C96.9627 79.7599 96.6124 80.8942 96.6124 82.0285H22.8262C22.8262 80.8942 22.4731 79.7628 21.8409 78.9113C21.1376 77.9913 20.1495 77.4942 19.0218 77.3542C18.8111 77.3542 18.6004 77.2828 18.3868 77.2828C16.7666 77.2828 15.2858 78.1313 14.722 79.4085C14.3006 80.3999 14.4401 81.3913 15.1434 82.1713C15.5649 82.6685 16.1999 82.9513 16.9061 82.9513C17.5411 82.9513 18.1733 82.7399 18.6687 82.3856C18.1049 83.3771 16.9061 84.2285 15.4965 84.2285C15.2858 84.2285 15.0751 84.2285 14.7932 84.1571C13.3125 83.8742 12.7486 82.1742 12.891 80.7571C13.1017 78.4913 14.8644 76.1542 18.3868 76.1542H19.0218L20.289 76.2256L20.0783 74.9513C20.0071 74.5971 19.5856 73.3942 16.9773 72.9685C17.0485 72.8971 17.188 72.7571 17.2592 72.7571C18.7399 71.3399 18.1761 68.9313 17.5411 67.7285L17.2592 67.1628H16.5558C16.2027 67.1628 15.0751 67.2342 14.0186 67.7999C13.4548 68.0828 12.8198 68.5799 12.3272 69.3571C12.256 69.2142 12.1165 69.0742 12.0453 68.9313C11.5527 68.4342 10.9176 68.1513 10.2143 68.1513C9.72166 68.1513 9.22903 68.2942 8.80475 68.5056L7.67711 69.1428L8.52284 70.0628C8.59403 70.1342 9.65047 71.4085 9.22619 73.3199C8.80475 75.0913 8.24093 78.3485 8.52284 81.0399C8.1014 80.1199 6.97376 75.8685 8.16974 72.8228L8.66237 71.4771H7.25282C6.83138 71.4771 6.47828 71.5485 6.19637 71.7599C6.3359 70.5571 6.83138 69.4228 7.53473 68.5028C9.155 66.3056 12.1165 65.1028 15.7813 65.1028H16.9801L16.8406 63.9685C16.7011 63.0485 16.0661 61.2771 14.1639 60.9228C14.4458 60.6399 14.7277 60.2856 14.8672 59.8599C15.7841 57.7342 15.5022 56.4599 14.9384 54.9028L14.6565 54.1228L13.8108 54.2656C13.6712 54.2656 10.8521 54.7628 9.01831 56.8142C8.94712 56.6713 8.87878 56.4599 8.80759 56.3171L8.94712 55.9628C11.06 51.5713 12.4696 49.6599 13.8108 47.8171C15.6418 45.2685 17.4044 42.8599 20.5054 34.7856C20.7873 34.0771 20.998 33.4399 21.28 32.9428H45.7463C45.6694 32.8285 45.5982 32.7085 45.527 32.5885C45.4217 32.4313 45.3305 32.2685 45.2451 32.0999C45.1682 31.9571 45.0913 31.8171 45.0202 31.6742C45.0002 31.6542 44.986 31.6256 44.9774 31.5971H21.9833C22.3364 30.8885 22.6867 30.3942 23.0398 29.9685H44.2598C44.1687 29.7428 44.0918 29.5142 44.0121 29.2828C43.9552 29.0999 43.8925 28.9085 43.8441 28.7171C43.8299 28.6885 43.8242 28.6599 43.8156 28.6256H26.847L26.4255 27.5628C25.5798 25.5085 24.2414 25.0828 23.3245 25.0828C21.28 25.0828 19.2382 27.0656 18.3925 28.0571C17.7575 25.7913 15.6446 24.2313 12.8967 24.1628H12.8255C11.416 24.1628 10.0064 24.7285 9.02116 25.7199C8.0359 26.7113 7.47208 28.1285 7.47208 29.6856C7.47208 32.3771 9.72736 34.1485 11.8403 34.1485C12.4041 34.1485 12.9679 34.0056 13.4605 33.7942C14.0243 33.5113 14.4458 33.1571 14.7989 32.8742C14.7277 35.2113 14.4458 37.1942 14.1639 38.6113C14.0243 38.1142 13.8108 37.6913 13.5289 37.3371C12.965 36.6999 12.1905 36.3456 11.2736 36.3456C10.9917 36.3456 10.6386 36.4171 10.2883 36.4885L9.23188 36.6999L9.51379 37.6913C9.93523 39.0371 10.0776 40.3828 10.1488 41.5171L9.93808 41.3056C9.44545 40.8085 8.81044 40.5256 8.10709 40.5256C7.75399 40.5256 7.33255 40.5971 6.90826 40.7371L5.85181 41.0913L6.27326 42.0828C6.76589 43.3571 7.04779 45.4828 6.76588 47.5371C6.20207 46.9713 5.49872 46.6171 4.65299 46.6171C3.87845 46.6171 3.17225 46.8999 2.67962 47.4656C2.32652 47.8913 1.83389 48.6685 1.83389 49.8742C1.90508 51.0771 2.81915 51.9285 4.01798 51.9285C4.29989 51.9285 4.5818 51.8571 4.79252 51.7856C4.65299 52.5656 4.37108 53.5571 3.66488 55.0428C1.7627 58.9371 -2.32641 71.0513 1.7627 79.8342C3.73607 84.0828 7.3297 86.9171 12.4753 88.1913C13.5317 88.4742 14.5198 88.6171 15.4339 88.6171C18.1106 88.6171 20.084 87.4828 21.2828 86.1371H98.3779C99.5768 87.4828 101.479 88.6171 104.227 88.6171C105.144 88.6171 106.2 88.4742 107.185 88.1913C112.331 86.9171 115.925 84.0828 117.898 79.8342C121.916 71.0513 117.827 59.0113 115.925 55.0428L115.919 55.0399ZM21.9805 82.6628C21.6274 84.0799 20.0071 87.6199 15.357 87.6199C14.5113 87.6199 13.5944 87.4771 12.6091 87.2656C-4.72691 82.9456 1.54629 61.5542 4.50491 55.5342C6.83138 50.7171 5.56136 49.3713 4.78682 49.3713C4.36538 49.3713 4.15181 49.7256 4.5761 50.1513C5.06873 50.6485 4.5761 50.9999 3.94109 50.9999C3.37728 50.9999 2.81346 50.7171 2.74227 49.8656C2.74227 48.3085 3.65918 47.5999 4.57326 47.5999C5.55851 47.5999 6.54662 48.3799 6.40424 49.7971C6.33305 50.4342 6.47543 50.6456 6.61496 50.6456C6.82568 50.6456 7.0364 50.2913 7.17878 49.9371C8.0957 47.3885 7.95332 43.7742 7.17878 41.7199C7.53188 41.6485 7.81379 41.5771 8.0957 41.5771C9.99788 41.5771 9.99788 44.1971 9.99788 44.9771C9.99788 45.3313 10.1374 45.4742 10.2798 45.4742C10.4905 45.4742 10.8436 45.1913 10.9831 44.9085C11.265 44.2713 11.4046 40.7999 10.4905 37.4713C10.7724 37.3999 11.0543 37.3999 11.265 37.3999C13.8022 37.3999 13.4491 40.7999 13.3096 41.6485C13.2384 42.0742 13.3808 42.2142 13.6627 42.2142C13.9446 42.2142 14.2977 42.0028 14.4372 41.6485C14.9299 40.5142 16.0575 36.1942 15.8468 29.9628C15.7756 28.5456 14.3661 27.4142 13.0277 27.4142C11.6893 27.4142 10.351 28.2628 10.4193 29.9628C10.4905 30.8828 11.4046 31.6628 12.0396 31.6628H12.1108C14.013 31.6628 14.0841 30.0342 13.5203 29.5371C13.3808 29.3942 13.2384 29.3942 13.1672 29.3942C12.9565 29.3942 12.8141 29.6771 13.0277 30.3142C13.0989 30.4571 12.7458 30.8799 12.3243 30.8799C12.0424 30.8799 11.7605 30.6685 11.5498 30.0999C11.2679 29.2513 12.1136 28.3285 13.0305 28.3285C13.8763 28.3285 14.9327 29.2485 14.9327 30.0999C14.9327 30.9513 15.0039 32.0113 13.0305 33.0028C12.6774 33.2142 12.256 33.2856 11.9029 33.2856C10.2826 33.2856 8.51999 31.9399 8.51999 29.8142C8.51999 27.1942 10.4934 25.3513 12.8882 25.3513H12.9594C15.5677 25.4228 17.6806 27.1228 17.6806 29.8142C17.6806 30.6628 17.3275 31.7256 17.0456 32.4342C16.9061 32.8599 17.0456 33.0713 17.3275 33.0713C17.4671 33.0713 17.6806 32.9999 17.8202 32.7885C18.4552 32.0085 18.8766 29.3171 18.8766 29.3171C18.8766 29.3171 21.2714 26.2713 23.3872 26.2713C24.2329 26.2713 25.0074 26.7685 25.5712 28.1142C23.951 28.1856 22.2595 27.9028 19.7935 34.5599C14.5796 48.3713 13.3808 45.1142 8.30642 55.6685C8.30642 55.6685 8.02451 55.5256 7.53188 55.5256H7.32116C7.39235 55.4542 7.39235 55.3828 7.46069 55.2428C8.44595 53.3999 9.64478 51.4885 10.9148 49.5771C12.1136 47.7342 13.3096 45.9656 14.3689 44.2656C15.4253 42.6371 16.2711 41.0771 16.9061 39.7313C18.0252 37.3513 18.4352 35.6371 18.5121 35.3199C18.421 35.6171 17.8999 37.2828 16.6242 39.5913C15.9208 40.8656 15.0039 42.3542 13.9475 43.9828C12.891 45.6113 11.621 47.3113 10.425 49.2256C9.15784 51.1371 8.03021 53.0513 7.0421 54.9628C6.97091 55.1742 6.83138 55.3885 6.76019 55.5285C6.05684 55.6713 5.21111 56.0942 4.36538 57.0856C4.85801 57.7228 5.13992 58.2885 5.35064 58.8571C5.13992 59.3542 4.9292 59.9199 4.78682 60.3456C4.223 61.9742 3.94109 63.3913 3.80156 64.3828C3.68766 65.1828 3.75885 65.7085 3.79587 65.8771C3.79017 65.6999 3.77594 65.1771 3.94394 64.3828C4.08347 63.3913 4.50776 61.9742 5.07158 60.4171C5.21111 60.0628 5.35349 59.7085 5.49302 59.3542C5.63255 59.9913 5.63255 60.5571 5.56421 60.7713C3.94394 66.2971 4.71848 66.3656 4.71848 66.3656C8.17258 61.2656 5.77493 57.2999 5.77493 57.2999C6.19637 56.9456 6.97376 56.5199 7.60592 56.5199C8.16974 56.5199 8.59118 56.8742 8.38046 58.0771C8.30927 58.6428 8.02736 59.1399 7.95902 59.8485C7.88783 60.2742 8.16974 60.4142 8.45165 60.4142C8.59118 60.4142 8.80475 60.3428 8.80475 60.2028C9.43975 56.0942 14.3006 55.3142 14.3006 55.3142C14.7932 56.6599 15.0751 57.6513 14.2294 59.5628C13.7367 60.6256 12.4667 61.1199 12.1165 61.2628C11.8346 61.4056 11.9058 62.1113 12.3984 62.1113H12.5379C12.9594 61.9685 13.3836 61.8999 13.7367 61.8999C15.8496 61.8999 16.0632 64.0971 16.0632 64.0971H15.992C7.81664 64.0971 4.08347 69.6913 5.77493 75.5713C5.91446 76.2085 6.12803 76.7742 6.33875 77.3428C6.33875 77.3428 5.35349 72.5256 7.53758 72.5256C6.19922 76.1371 7.60877 81.0256 8.03021 81.7342C9.22903 83.7885 11.4843 84.7085 11.5527 84.7085C9.15784 83.3628 9.65047 77.6256 10.5674 73.5885C11.1312 71.1085 9.65047 69.4085 9.65047 69.4085C9.93238 69.2656 10.2855 69.1256 10.5674 69.1256C11.4843 69.1256 12.33 69.9056 12.1165 71.9599C12.1165 72.3142 12.256 72.4571 12.4696 72.4571C12.6831 72.4571 12.9622 72.3142 12.9622 71.9599C12.9622 68.2771 16.5558 68.1342 16.9089 68.1342C16.9089 68.1342 18.1761 70.6828 16.8377 71.9599C15.2175 73.4485 15.0751 73.6599 16.8377 73.8713C19.2326 74.1542 19.4461 75.0742 19.4461 75.0742H18.7428C11.2024 75.0742 10.5674 84.2828 14.9384 85.0599C15.2203 85.1313 15.5022 85.1313 15.7841 85.1313C19.3778 85.1313 21.4223 80.8828 19.8021 79.9599C19.1671 79.6056 18.6744 79.4628 18.3213 79.4628C17.2649 79.4628 17.2649 80.5971 17.8287 80.5971H17.8999C19.5202 80.5971 18.3213 81.7999 17.1253 81.7999C16.7722 81.7999 16.3508 81.6571 16.0689 81.3742C14.9413 80.0999 16.2796 78.1856 18.5349 78.1856H19.0275C21.4223 78.4685 22.1997 80.8056 21.9862 82.6485L21.9805 82.6628ZM22.12 84.8599C22.4019 84.2942 22.6126 83.7256 22.755 83.2313H96.7491C96.8887 83.7285 97.1022 84.2942 97.3841 84.8599H22.12ZM106.898 87.2685C105.913 87.5513 104.996 87.6228 104.15 87.6228C99.4999 87.6228 97.8768 84.0799 97.6661 82.6656C97.4553 80.8228 98.2299 78.4856 100.625 78.2028H101.117C103.373 78.2028 104.711 80.1856 103.583 81.3913C103.301 81.7456 102.88 81.8171 102.527 81.8171C101.328 81.8171 100.061 80.6142 101.752 80.6142H101.824C102.387 80.6142 102.387 79.4799 101.331 79.4799C100.978 79.4799 100.485 79.6228 99.8501 79.9771C98.2299 80.8971 100.272 85.1485 103.868 85.1485C104.15 85.1485 104.432 85.1485 104.714 85.0771C109.082 84.2971 108.45 75.0913 100.909 75.0913H100.206C100.206 75.0913 100.346 74.1713 102.814 73.8885C104.506 73.6771 104.435 73.4628 102.814 71.9771C101.476 70.7028 102.743 68.1513 102.743 68.1513C103.096 68.1513 106.69 68.2228 106.69 71.9771C106.69 72.2599 106.972 72.4742 107.183 72.4742C107.393 72.4742 107.604 72.3313 107.536 71.9771C107.325 69.9228 108.171 69.1428 109.085 69.1428C109.438 69.1428 109.72 69.2142 110.002 69.4256C110.002 69.4256 108.521 71.0542 109.085 73.6056C110.002 77.5713 110.494 83.3799 108.1 84.7256C108.171 84.7256 110.426 83.8056 111.622 81.7513C112.043 81.0428 113.524 76.1571 112.115 72.5428C114.299 72.5428 113.313 77.3599 113.313 77.3599C113.524 76.7942 113.667 76.2256 113.877 75.5885C115.569 69.7085 111.833 64.1142 103.66 64.1142H103.589C103.589 64.1142 103.871 61.9171 105.915 61.9171C106.269 61.9171 106.619 61.9885 107.114 62.1285H107.254C107.746 62.1285 107.818 61.4199 107.536 61.2799C107.254 61.0685 105.915 60.6428 105.423 59.5799C104.648 57.7371 104.859 56.7456 105.352 55.3313C105.352 55.3313 110.215 56.1113 110.847 60.2199C110.847 60.3628 111.058 60.4313 111.201 60.4313C111.482 60.4313 111.693 60.2885 111.693 59.8656C111.622 59.1571 111.411 58.7313 111.272 58.0942C111.061 56.8913 111.482 56.5371 112.046 56.5371C112.61 56.5371 113.385 56.9628 113.877 57.3171C113.877 57.3171 111.482 61.2828 114.934 66.3828C114.934 66.3828 115.708 66.3113 114.088 60.7885C114.017 60.5771 114.017 60.0799 114.159 59.3713C114.299 59.7256 114.441 60.0799 114.581 60.4342C115.216 62.0628 115.566 63.4085 115.708 64.3999C115.836 64.9942 115.862 65.4342 115.862 65.6971C115.882 65.4428 115.891 64.9971 115.848 64.3999C115.708 63.4085 115.426 61.9913 114.863 60.3628C114.723 59.8656 114.509 59.3713 114.299 58.8056C114.509 58.2399 114.791 57.6713 115.284 57.0342C114.438 56.0428 113.593 55.6171 112.889 55.4771C112.818 55.2656 112.678 55.1228 112.607 54.9113C111.622 52.9999 110.494 51.0856 109.224 49.1742C108.026 47.2628 106.758 45.5628 105.702 43.9313C104.645 42.3028 103.729 40.8142 103.025 39.5399C101.73 37.1313 101.206 35.4399 101.129 35.2399C101.171 35.4456 101.55 37.1599 102.743 39.6799C103.378 41.0256 104.224 42.5828 105.28 44.2142C106.337 45.8428 107.536 47.6142 108.735 49.5256C109.933 51.3685 111.129 53.2799 112.189 55.1913C112.26 55.2628 112.26 55.3342 112.328 55.4742H112.117C111.625 55.4742 111.343 55.6171 111.343 55.6171C106.269 45.0628 105.07 48.3228 99.8558 34.5085C97.3186 27.9199 95.6984 28.1342 94.0781 28.0628C94.6419 26.7171 95.4165 26.2199 96.2622 26.2199C98.3751 26.2199 100.773 29.2656 100.773 29.2656C100.773 29.2656 101.194 31.9571 101.829 32.7371C101.969 32.8799 102.111 33.0199 102.322 33.0199C102.604 33.0199 102.743 32.8085 102.604 32.3828C102.322 31.6742 101.969 30.6113 101.969 29.7628C101.969 27.1428 104.082 25.3713 106.69 25.2999H106.761C109.156 25.2999 111.129 27.1428 111.129 29.7628C111.129 31.8885 109.367 33.2342 107.746 33.2342C107.325 33.2342 106.972 33.1628 106.619 32.9513C104.717 31.9599 104.717 30.8971 104.717 30.0485C104.717 29.1999 105.773 28.2771 106.619 28.2771C107.536 28.2771 108.381 29.1971 108.1 30.0485C107.889 30.6142 107.607 30.8285 107.325 30.8285C106.904 30.8285 106.55 30.4028 106.622 30.2628C106.904 29.6256 106.761 29.3428 106.482 29.3428C106.343 29.3428 106.271 29.4142 106.129 29.4856C105.565 29.9828 105.636 31.6113 107.539 31.6113H107.61C108.245 31.6113 109.23 30.8313 109.23 29.9113C109.301 28.2113 107.963 27.3628 106.622 27.3628C105.28 27.3628 103.874 28.4971 103.803 29.9113C103.592 36.2142 104.719 40.4656 105.212 41.5971C105.352 41.9513 105.705 42.1628 105.987 42.1628C106.197 42.1628 106.408 42.0199 106.34 41.5971C106.2 40.8171 105.847 37.3485 108.384 37.3485C108.595 37.3485 108.877 37.3485 109.159 37.4199C108.174 40.7485 108.384 44.1485 108.666 44.8571C108.806 45.1399 109.088 45.4228 109.37 45.4228C109.509 45.4228 109.651 45.2799 109.651 44.9256C109.651 44.1456 109.651 41.5256 111.554 41.5256C111.836 41.5256 112.117 41.5971 112.471 41.6685C111.625 43.7228 111.554 47.3342 112.471 49.8856C112.61 50.2399 112.892 50.5942 113.034 50.5942C113.177 50.5942 113.316 50.3828 113.245 49.7456C113.106 48.3285 114.091 47.5485 115.076 47.5485C115.993 47.5485 116.907 48.2571 116.907 49.8142C116.836 50.6628 116.272 50.9485 115.708 50.9485C115.073 50.9485 114.581 50.5228 115.073 50.0999C115.566 49.6742 115.284 49.3199 114.863 49.3199C114.088 49.3199 112.75 50.6656 115.144 55.4828C117.964 61.5028 124.234 82.9656 106.898 87.2856V87.2685ZM117.75 69.0656C117.821 82.1685 109.082 87.6228 101.117 86.2771C103.794 88.1885 119.299 86.4199 117.75 69.0656ZM114.156 67.8599C111.408 62.5485 105.135 63.5399 105.135 63.5399C110.631 63.3285 116.833 67.7885 114.156 76.7142C114.156 76.7142 116.483 72.5342 114.156 67.8599ZM1.75416 69.0656C0.205081 86.4199 15.7073 88.1885 18.3868 86.2771C10.4222 87.6228 1.68582 82.1685 1.75416 69.0656ZM14.3689 63.5399C14.3689 63.5399 8.0957 62.5485 5.34779 67.8599C3.02133 72.5342 5.34779 76.7142 5.34779 76.7142C2.67108 67.7885 8.87024 63.3285 14.3689 63.5399ZM117.75 69.0656C117.821 82.1685 109.082 87.6228 101.117 86.2771C103.794 88.1885 119.299 86.4199 117.75 69.0656ZM114.156 67.8599C111.408 62.5485 105.135 63.5399 105.135 63.5399C110.631 63.3285 116.833 67.7885 114.156 76.7142C114.156 76.7142 116.483 72.5342 114.156 67.8599ZM1.75416 69.0656C0.205081 86.4199 15.7073 88.1885 18.3868 86.2771C10.4222 87.6228 1.68582 82.1685 1.75416 69.0656ZM5.34779 67.8599C3.02133 72.5342 5.34779 76.7142 5.34779 76.7142C2.67108 67.7885 8.87024 63.3285 14.3689 63.5399C14.3689 63.5399 8.0957 62.5485 5.34779 67.8599Z" fill="#1D1D1B"/>
<path d="M68.1538 9.70278C67.1685 9.13707 66.3228 8.71136 65.4771 8.35707C64.7025 8.00278 63.9963 7.6485 63.293 7.22278C62.5184 6.72564 60.9665 4.81421 60.3344 4.03421L57.0226 -0.00292969L56.4588 5.3085C56.3193 6.86564 55.895 7.29136 55.6131 7.50564C54.5566 8.35421 53.8504 8.7085 52.9364 9.13421C52.6545 9.27707 52.3014 9.4885 51.9511 9.63135C50.9659 10.1285 43.2119 14.5199 43.2119 24.2228C43.2119 25.7456 43.4226 27.2199 43.8184 28.6142C43.8241 28.6485 43.8327 28.6771 43.8469 28.7056C43.8953 28.8971 43.9608 29.0885 44.0149 29.2714C44.0918 29.5056 44.1687 29.7314 44.2627 29.9571C44.4677 30.5171 44.7069 31.0628 44.9803 31.5856C44.986 31.6142 45.0002 31.6428 45.023 31.6628C45.0942 31.8056 45.171 31.9456 45.2479 32.0885C45.3334 32.2571 45.4245 32.4228 45.5298 32.5771C45.621 32.7399 45.7206 32.8971 45.8174 33.0456C45.8943 33.1799 45.9798 33.3085 46.0794 33.4428C46.199 33.6256 46.3328 33.8114 46.4667 33.9885C46.4952 34.0314 46.5293 34.0742 46.5664 34.1171C46.7059 34.3085 46.854 34.4999 47.0106 34.6828C47.0163 34.6971 47.0248 34.7028 47.0391 34.7114C47.3153 35.0371 47.5972 35.3571 47.899 35.6599C47.9047 35.6742 47.9189 35.6885 47.9417 35.7028C48.0613 35.8371 48.1952 35.9656 48.329 36.0856C48.3347 36.0999 48.3489 36.1142 48.3632 36.1199C48.4913 36.2485 48.6251 36.3685 48.759 36.4799C48.9782 36.6771 49.1947 36.8685 49.4282 37.0456C49.5762 37.1742 49.73 37.2856 49.8866 37.3999C50.1059 37.5685 50.3365 37.7342 50.5786 37.8885C50.7751 38.0314 50.9801 38.1571 51.1908 38.2771C52.2757 38.9428 53.4518 39.4885 54.6933 39.8913C54.8215 39.9342 54.9468 39.9771 55.0749 40.0113C55.2429 40.0599 55.4138 40.1114 55.5818 40.1542C56.1798 40.3171 56.7863 40.4456 57.4071 40.5371C57.6035 40.5656 57.8086 40.5942 58.0136 40.6085C58.0421 40.6142 58.0762 40.6228 58.1047 40.6228C58.2101 40.6371 58.3154 40.6428 58.4293 40.6514C58.5831 40.6714 58.7397 40.6799 58.8935 40.6856C59.0131 40.6999 59.1412 40.7056 59.2608 40.7056C59.4801 40.7114 59.6965 40.7199 59.9158 40.7199C60.135 40.7199 60.3657 40.7142 60.5935 40.7056C60.7273 40.7056 60.8555 40.6999 60.9808 40.6856C61.1431 40.6799 61.2968 40.6714 61.4535 40.6571C62.023 40.6085 62.5811 40.5371 63.125 40.4314C63.2588 40.4171 63.387 40.3885 63.5122 40.3599C63.9337 40.2742 64.3523 40.1771 64.7595 40.0542C64.9133 40.0114 65.0756 39.9685 65.2322 39.9114C65.9441 39.6914 66.6275 39.4228 67.291 39.1028C67.9744 38.7828 68.6293 38.4171 69.2558 38.0113C69.6915 37.7199 70.1158 37.4171 70.5173 37.0914C70.7223 36.9285 70.9188 36.7571 71.1153 36.5885C71.6933 36.0714 72.2287 35.5199 72.7298 34.9171C72.7298 34.9114 72.7355 34.9114 72.7441 34.9028C72.8978 34.7056 73.0602 34.5056 73.2082 34.3085C73.5186 33.8914 73.8148 33.4656 74.0824 33.0199C74.2163 32.7942 74.3444 32.5656 74.4697 32.3399C74.5978 32.1056 74.7089 31.8714 74.8285 31.6399C74.8342 31.6199 74.8427 31.6056 74.857 31.5828C75.0962 31.0599 75.3211 30.5142 75.5062 29.9542C75.5831 29.7342 75.6543 29.5142 75.7255 29.2885C75.7967 29.0685 75.8593 28.8342 75.9163 28.6085C76.2409 27.3056 76.4089 25.9314 76.4089 24.4999C76.4089 18.4085 73.3791 13.0256 68.1623 9.69707L68.1538 9.70278ZM59.9784 39.4514C51.3816 39.4514 44.405 32.5799 44.405 24.1514C44.405 15.0856 51.7347 11.0485 52.5092 10.6228C52.8623 10.4799 53.2126 10.2685 53.4945 10.1256C54.4798 9.6285 55.2571 9.20564 56.3848 8.35421C56.8774 7.9285 57.4412 7.36278 57.6519 5.37993L57.9339 2.89993L59.4829 4.81136C60.2575 5.73136 61.8094 7.57421 62.7235 8.21136C63.498 8.7085 64.2726 9.05993 65.0499 9.41421C65.8957 9.7685 66.6702 10.1228 67.5871 10.6885C72.4508 13.7342 75.2699 18.7628 75.2699 24.4285C75.2699 32.9999 68.7148 39.4456 59.9784 39.4456V39.4514Z" fill="#1D1D1B"/>
<path d="M75.2699 24.4371C75.2699 33.0085 68.7147 39.4543 59.9784 39.4543C51.242 39.4543 44.405 32.5828 44.405 24.1543C44.405 15.0885 51.7347 11.0514 52.5092 10.6257C52.8623 10.4828 53.2126 10.2714 53.4945 10.1285C54.4797 9.6314 55.2571 9.20855 56.3848 8.35712C56.8774 7.9314 57.4412 7.36569 57.6519 5.38283L57.9338 2.90283L59.4829 4.81426C60.2575 5.73426 61.8094 7.57712 62.7235 8.21426C63.498 8.7114 64.2725 9.06283 65.0499 9.41712C65.8957 9.7714 66.6702 10.1257 67.5871 10.6914C72.4508 13.7371 75.2699 18.7657 75.2699 24.4314V24.4371Z" fill="white"/>
<path d="M67.0262 11.6171C65.3348 10.6256 63.7145 10.1999 62.1626 9.13706C61.1773 8.49992 59.8361 6.87135 58.7085 5.52563C58.4978 7.72278 57.8628 8.64278 57.017 9.20849C55.3968 10.4828 54.4087 10.8371 52.9991 11.6171C52.0252 12.0771 47.6571 14.6913 46.051 20.0599C46.0311 20.1313 46.0083 20.2028 45.9941 20.2799C45.6552 21.4628 45.4587 22.7742 45.4587 24.2256C45.4587 32.4428 52.3641 38.4628 59.9757 38.4628C66.508 38.4628 72.3085 34.3971 73.8177 27.9171C74.0797 26.8485 74.2135 25.7085 74.2135 24.5113C74.2135 16.0828 68.0115 12.2571 67.0262 11.6199V11.6171ZM66.7443 35.0599C66.6048 35.2028 65.1241 36.2628 63.4326 36.4056C61.7411 36.5485 59.4147 36.6885 58.0051 35.4142C57.7944 35.2028 57.8656 34.8485 58.0051 34.7771C58.1447 34.6342 58.287 34.5656 58.4978 34.5656C58.7085 34.4942 58.6373 34.4942 58.7797 34.5656C59.4147 35.0628 60.3288 35.4856 62.3733 35.4856C64.4179 35.4856 65.8274 34.9199 66.4596 34.4228C66.7415 34.2113 66.881 34.4228 66.881 34.4942C66.881 34.6371 66.9522 34.8485 66.7415 35.0599H66.7443ZM61.1061 32.0856C61.4592 31.8028 62.0231 31.2371 62.5869 31.0228C63.2219 30.8799 63.5038 30.8799 63.9964 30.8799C64.4891 30.8799 65.0529 30.8799 65.406 31.1628C65.7591 31.4456 66.041 32.0113 66.1093 32.2971C66.2489 32.5799 66.1093 32.7942 65.8274 32.9342C65.6167 33.0771 65.5455 33.0056 65.3348 32.5799C65.1241 32.1542 64.9133 31.7313 63.7857 31.7313C62.6581 31.7313 62.305 32.0856 61.8123 32.5799C61.2485 33.0056 61.109 33.2171 60.8954 32.9342C60.6847 32.6513 60.7559 32.4371 61.1061 32.0856ZM71.8187 31.0228C71.0442 32.1571 70.5515 32.5799 69.7058 32.5113C68.5782 32.4399 66.3229 28.8285 64.8422 28.7571C63.0112 28.6856 58.9932 32.5828 55.8922 32.5828C53.9901 32.5828 53.4262 32.2999 52.7912 31.8742C51.7348 31.1656 51.2422 30.1742 51.3105 28.7571C51.3105 26.2771 53.637 23.9399 56.5956 23.9399C60.2604 23.9399 62.8688 27.6228 64.6998 27.6228C66.2489 27.6228 69.3499 24.5056 70.8306 24.5056C72.3113 24.5056 72.8752 26.1342 72.8752 27.1256C72.8752 28.1171 72.5932 29.8885 71.8187 31.0199V31.0228Z" fill="#0077C0"/>
<path d="M23.6404 48.0315C23.6404 47.3829 23.6404 45.6429 23.5465 45.0886C23.4696 44.7057 23.1848 44.2857 22.8431 44.1143V44.0572H26.8753C28.9284 44.0572 30.8505 43.9629 32.5619 45.1657C34.2733 46.3715 35.1304 48.34 35.1304 50.4057C35.1304 52.26 34.3502 54.1715 32.8865 55.34C31.1552 56.7343 29.253 56.64 27.123 56.64H22.8431V56.5829C23.7743 55.9915 23.6433 54.9 23.6433 53.9057V48.0372L23.6404 48.0315ZM27.1572 54.5915C27.4989 54.7057 27.8406 54.7457 28.1852 54.7457C29.384 54.7457 30.1443 54.3829 30.7708 53.3315C31.2833 52.4515 31.4371 51.42 31.4371 50.4057C31.4371 48.4372 30.7537 46.0857 28.413 46.0857C27.9944 46.0857 27.5758 46.1429 27.1572 46.22V54.5943V54.5915ZM40.9907 53.9029C40.9907 54.8972 40.8569 55.9857 41.788 56.58V56.6372H36.6709V56.58C37.6021 55.9886 37.4682 54.8972 37.4682 53.9029V46.7915C37.4682 45.7972 37.6021 44.7086 36.6709 44.1143V44.0572H42.3006C43.2317 44.0572 43.9949 44.0372 44.8491 44.4972C45.9711 45.1086 46.5434 46.1229 46.5434 47.4029C46.5434 48.8372 45.5354 49.8886 44.2796 50.4229L46.5434 54.2286C47.056 55.0886 47.6084 55.8915 48.3687 56.5229L45.7433 56.6943C44.4676 56.7715 43.861 56.5972 43.1947 55.4143L40.9878 51.2457V53.9029H40.9907ZM40.9907 45.9086V50.2286C42.1696 50.0172 43.0438 49.0057 43.0438 47.8C43.0438 47.1886 42.796 46.5372 42.2835 46.1743C41.9589 45.9457 41.5602 45.9057 41.1786 45.9057H40.9878L40.9907 45.9086ZM57.2959 55.0886C56.5527 56.1772 55.3937 56.8857 53.987 56.8857C52.959 56.8857 51.951 56.56 51.2106 55.7972C50.3734 54.9172 50.3165 53.98 50.3165 52.8143V46.7915C50.3165 45.7972 50.4503 44.7086 49.5163 44.1143V44.0572H54.5765V44.1143C53.6453 44.7057 53.7763 45.7972 53.7763 46.7915V52.0115C53.7763 52.7572 53.7393 53.4829 54.1949 54.1143C54.4796 54.4972 54.9552 54.7057 55.4307 54.7057C57.162 54.7057 57.2959 52.66 57.2959 51.38V46.7915C57.2959 45.7972 57.4297 44.7086 56.4957 44.1143V44.0572H61.5729V44.1143C60.6418 44.7057 60.7756 45.7972 60.7756 46.7915V53.9029C60.7756 54.8972 60.6418 55.9857 61.5729 56.58V56.6372H57.293V55.0886H57.2959ZM67.4959 53.8629C67.4959 54.9515 67.5158 55.8143 68.3331 56.5772V56.6343H63.253V56.5772C64.1842 55.9857 64.0532 54.8943 64.0532 53.9V46.7886C64.0532 45.7943 64.187 44.7057 63.253 44.1115V44.0543H67.7408C68.8058 44.0543 70.1954 44.0343 71.1465 44.5143C72.3054 45.0886 72.9518 46.1972 72.9518 47.4972C72.9518 50.2115 70.6709 51.2629 68.2904 51.2629C68.0625 51.2629 67.8347 51.2629 67.6069 51.2257C68.7858 50.7286 69.4522 49.7143 69.4522 48.4343C69.4522 47.0772 68.9766 46.0057 67.493 45.9486V53.8629H67.4959ZM77.0295 52.8315L76.5739 54.1315C76.4401 54.5143 76.2322 55.1057 76.2322 55.5086C76.2322 56.0429 76.5739 56.2915 76.9156 56.58V56.6372H73.0173V56.58C73.7406 55.9115 73.9883 55.3572 74.33 54.38L76.9555 46.7515C77.0694 46.3686 77.3741 45.6229 77.3741 45.2229C77.3741 44.7057 77.0324 44.3629 76.6508 44.1143V44.0572H81.3123L84.9088 53.9029C85.3644 55.1257 85.4612 55.5657 86.5461 56.58V56.6372H80.7997V56.58C81.2383 56.2943 81.58 56.0257 81.58 55.4143C81.58 55.0886 81.5429 54.9943 81.429 54.6886L80.8026 52.8343H77.0352L77.0295 52.8315ZM78.8548 47.2857H78.8349L77.5791 51.0515H80.1647L78.852 47.2857H78.8548ZM92.1729 54.4743C92.7823 54.76 93.4857 54.8 94.1719 54.8C95.217 54.8 96.0342 54.5886 96.8743 53.96L96.151 56.6372H87.8589V56.58C88.79 55.9886 88.659 54.9172 88.659 53.9229V46.7915C88.659 45.7972 88.7929 44.7086 87.8589 44.1143V44.0572H92.9759V44.1143C92.0448 44.7057 92.1758 45.7972 92.1758 46.8086V54.4743H92.1729ZM23.2446 68.7457C23.2446 68.2172 23.2446 66.7972 23.1677 66.3457C23.1051 66.0343 22.8744 65.6915 22.5954 65.5515V65.5057H25.8815C27.5558 65.5057 29.122 65.4286 30.5173 66.4086C31.9126 67.3915 32.6103 68.9943 32.6103 70.68C32.6103 72.1915 31.9753 73.7486 30.7793 74.7C29.3669 75.8372 27.8178 75.76 26.0808 75.76H22.5925V75.7143C23.3528 75.2315 23.2446 74.3429 23.2446 73.5315V68.7457ZM26.1121 74.0915C26.3912 74.1857 26.6703 74.2172 26.9493 74.2172C27.926 74.2172 28.5468 73.92 29.0594 73.0629C29.478 72.3457 29.6033 71.5057 29.6033 70.6772C29.6033 69.0715 29.0451 67.1543 27.1373 67.1543C26.7955 67.1543 26.4538 67.2 26.115 67.2629V74.0886L26.1121 74.0915ZM37.3828 74.0315C37.8954 74.2343 38.4677 74.2657 39.0116 74.2657C39.8801 74.2657 40.686 74.1257 41.2754 73.4086H41.3523L40.7316 75.7629H33.8632V75.7172C34.6235 75.2343 34.5153 74.36 34.5153 73.5515V67.7229C34.5153 66.9115 34.6235 66.0229 33.8632 65.5572V65.5115H39.2907C39.5242 65.5115 39.7719 65.5115 39.9428 65.4343H39.9883V67.6943H39.9428C39.5242 66.9629 38.6414 67.04 37.8811 67.04H37.3857V69.5657H38.8265C39.0429 69.5657 39.2594 69.5486 39.3989 69.4886H39.4758V71.6715H39.3989C39.1825 71.0486 38.4677 71.1115 37.8954 71.1115H37.3828V74.0429V74.0315ZM49.895 67.4857C49.989 67.2057 50.1115 66.8772 50.1115 66.5829C50.1115 66.0686 49.8182 65.7886 49.428 65.5543V65.5086H52.2044V65.5543L48.6222 76.0886C47.9558 75.8715 47.2582 75.6686 46.6687 75.3086C45.8173 74.7943 45.5838 74.3572 45.2421 73.4372L42.8843 66.9057C42.6992 66.36 42.5284 65.94 42.124 65.5486V65.5029H45.6294V65.5486L45.6151 65.6257C45.6151 66.0629 45.9569 66.9657 46.0964 67.3857L48.0669 73.12L49.8979 67.4772L49.895 67.4857ZM59.2123 68.7457C59.2123 68.2172 59.2123 66.7972 59.1354 66.3457C59.0728 66.0343 58.8421 65.6915 58.563 65.5515V65.5057H61.8491C63.5235 65.5057 65.0897 65.4286 66.485 66.4086C67.8803 67.3915 68.578 68.9943 68.578 70.68C68.578 72.1915 67.9429 73.7486 66.747 74.7C65.3374 75.8372 63.7855 75.76 62.0485 75.76H58.5602V75.7143C59.3205 75.2315 59.2123 74.3429 59.2123 73.5315V68.7457ZM62.0798 74.0915C62.3589 74.1857 62.6379 74.2172 62.917 74.2172C63.8937 74.2172 64.5145 73.92 65.027 73.0629C65.4456 72.3457 65.5709 71.5057 65.5709 70.6772C65.5709 69.0715 65.0128 67.1543 63.1049 67.1543C62.7632 67.1543 62.4215 67.2 62.0826 67.2629V74.0886L62.0798 74.0915ZM72.9945 72.6572L72.6215 73.7172C72.5133 74.0286 72.3424 74.5115 72.3424 74.84C72.3424 75.2772 72.6215 75.4772 72.9006 75.7115V75.7572H69.7227V75.7115C70.3121 75.1657 70.5143 74.7143 70.7934 73.92L72.9319 67.7029C73.0259 67.3915 73.2736 66.7829 73.2736 66.4572C73.2736 66.0372 72.9945 65.7572 72.6842 65.5543V65.5086H76.4828L79.413 73.5343C79.786 74.5315 79.8629 74.8915 80.7456 75.7172V75.7629H76.0614V75.7172C76.4173 75.4829 76.6964 75.2657 76.6964 74.7657C76.6964 74.5 76.6651 74.4229 76.5711 74.1743L76.0585 72.6629H72.9888L72.9945 72.6572ZM74.4838 68.14H74.4696L73.4445 71.2115H75.5545L74.4838 68.14ZM85.7687 73.4857C85.7687 74.3886 85.7858 75.0772 86.4522 75.7143V75.76H82.2491V75.7143C83.0094 75.2315 82.9012 74.3286 82.9012 73.5172V71.1172L80.5919 66.7543C80.327 66.2543 80.0793 65.8343 79.6151 65.5543V65.5086H83.2116V65.5543L85.0113 69.2315L85.8798 67.4543C86.0193 67.1743 86.2357 66.7057 86.2357 66.38C86.2357 65.96 86.082 65.74 85.7545 65.5543V65.5086H88.5451V65.5543L85.7687 71.1172V73.4857ZM89.351 73.1572C90.2195 73.8743 91.4895 74.3743 92.6086 74.3743C93.3063 74.3743 94.2517 74.14 94.2517 73.2686C94.2517 71.3657 89.5218 71.7572 89.5218 68.2657C89.5218 67.3772 89.9547 66.52 90.6694 66.0057C91.461 65.4457 92.4207 65.2572 93.3689 65.2572C94.2374 65.2572 95.1686 65.4115 95.9744 65.7257V67.5486C95.3223 67.1286 94.5649 66.8172 93.7875 66.8172C93.1838 66.8172 92.4378 67.0829 92.4378 67.8143C92.4378 68.5457 93.3376 68.86 93.91 69.1086C94.6532 69.4372 95.3537 69.7315 95.9716 70.2772C96.7148 70.9315 97.1192 71.6343 97.1192 72.6315C97.1192 73.6286 96.7006 74.5486 95.8776 75.1572C94.9636 75.8286 93.9697 75.9686 92.8706 75.9686C91.8483 75.9686 90.8232 75.7829 89.8635 75.4086L89.351 73.1629V73.1572Z" fill="white"/>
<path d="M38.9717 98.2914C39.3789 98.4828 39.8459 98.5085 40.3043 98.5085C41.002 98.5085 41.5487 98.3685 42.1068 97.9485L41.6256 99.7342H36.0928V99.6971C36.7135 99.3028 36.6253 98.5885 36.6253 97.9256V93.1685C36.6253 92.5056 36.7135 91.7771 36.0928 91.3828V91.3456H39.507V91.3828C38.8862 91.7771 38.9745 92.5056 38.9745 93.1799V98.2942L38.9717 98.2914ZM45.9112 98.3171C46.3298 98.4828 46.7996 98.5085 47.2439 98.5085C47.9558 98.5085 48.6135 98.3942 49.0976 97.8085H49.1603L48.6534 99.7342H43.0323V99.6971C43.6531 99.3028 43.5648 98.5885 43.5648 97.9256V93.1571C43.5648 92.4942 43.6531 91.7685 43.0323 91.3856V91.3485H47.4745C47.6653 91.3485 47.8675 91.3485 48.007 91.2856H48.044V93.1342H48.007C47.6653 92.5342 46.942 92.5999 46.3184 92.5999H45.9112V94.6656H47.0901C47.2666 94.6656 47.446 94.6514 47.5599 94.6028H47.6226V96.3885H47.5599C47.3834 95.8771 46.7996 95.9285 46.3298 95.9285H45.9112V98.3256V98.3171ZM55.2598 98.6999C54.7643 99.4256 53.9898 99.8999 53.0529 99.8999C52.3666 99.8999 51.6946 99.6828 51.202 99.1742C50.6439 98.5885 50.6068 97.9628 50.6068 97.1828V93.1656C50.6068 92.5028 50.6951 91.7742 50.0744 91.3799V91.3428H53.4487V91.3799C52.8279 91.7742 52.9162 92.5028 52.9162 93.1656V96.6456C52.9162 97.1428 52.8906 97.6285 53.1953 98.0485C53.3861 98.3028 53.7022 98.4428 54.0211 98.4428C55.1744 98.4428 55.2655 97.0771 55.2655 96.2228V93.1628C55.2655 92.4999 55.3537 91.7714 54.733 91.3771V91.3399H58.1216V91.3771C57.5008 91.7714 57.5891 92.4999 57.5891 93.1628V97.9056C57.5891 98.5685 57.5008 99.2971 58.1216 99.6914V99.7285H55.2655V98.6971L55.2598 98.6999ZM65.4085 92.9599C65.4854 92.7314 65.5879 92.4628 65.5879 92.2199C65.5879 91.7999 65.3459 91.5685 65.0298 91.3771V91.3399H67.3022V91.3771L64.372 99.9971C63.8253 99.8199 63.2558 99.6514 62.7717 99.3599C62.074 98.9399 61.8832 98.5828 61.6042 97.8285L59.6764 92.4856C59.5254 92.0399 59.3859 91.6942 59.0556 91.3742V91.3371H61.9231V91.3742L61.9117 91.4399C61.9117 91.7971 62.1908 92.5371 62.3047 92.8799L63.9164 97.5742L65.4142 92.9571L65.4085 92.9599ZM70.9015 98.3171C71.3201 98.4828 71.7899 98.5085 72.2341 98.5085C72.9432 98.5085 73.6038 98.3942 74.0879 97.8085H74.1506L73.6437 99.7342H68.0226V99.6971C68.6434 99.3028 68.5551 98.5885 68.5551 97.9256V93.1571C68.5551 92.4942 68.6434 91.7685 68.0226 91.3856V91.3485H72.4648C72.6556 91.3485 72.8578 91.3485 72.9973 91.2856H73.0372V93.1342H72.9973C72.6556 92.5342 71.9323 92.5999 71.3087 92.5999H70.9015V94.6656H72.0804C72.2569 94.6656 72.4363 94.6514 72.5502 94.6028H72.6129V96.3885H72.5502C72.3737 95.8771 71.7899 95.9285 71.3201 95.9285H70.9015V98.3256V98.3171ZM82.8641 99.9999C82.4199 99.9999 81.7223 99.6799 81.3407 99.4914C80.401 99.0199 80.1618 98.5856 79.5382 97.7685L77.1007 94.5028H77.0636V97.8685C77.0636 98.6085 77.075 99.1685 77.6218 99.6914V99.7285H75.1728V99.6914C75.731 99.1685 75.7424 98.6085 75.7424 97.8685V93.4685C75.7424 92.4856 75.6911 92.1428 75.0077 91.3771V91.3399H77.6474V91.3771L81.5429 96.5028V93.1999C81.5429 92.4599 81.5315 91.8999 80.9847 91.3771V91.3399H83.4223V91.3771C82.8755 91.8999 82.8641 92.4628 82.8641 93.1999V99.9971V99.9999Z" fill="#F9ECD9"/>
<path d="M29.8253 24.9199L29.999 25.2884C30.0502 25.397 30.13 25.5656 30.2125 25.6513C30.3236 25.7627 30.446 25.7456 30.5799 25.7342L30.5913 25.7456L29.7683 26.5599L29.7569 26.5484C29.7712 26.257 29.7085 26.0884 29.5775 25.8113L28.5524 23.6542C28.4983 23.5484 28.4072 23.3284 28.3246 23.2456C28.2164 23.137 28.074 23.137 27.943 23.1627L27.9316 23.1513L28.9141 22.177L31.7104 23.5027C32.0606 23.6656 32.1717 23.737 32.6102 23.7256L32.6216 23.737L31.4114 24.9399L31.4 24.9284C31.4313 24.777 31.4484 24.6484 31.3231 24.5199C31.2548 24.4513 31.2291 24.4399 31.1409 24.3999L30.6254 24.1399L29.831 24.9284L29.8253 24.9199ZM29.0621 23.3684H29.0593L29.5747 24.4284L30.1214 23.8884L29.065 23.3684H29.0621ZM35.6514 21.5027C35.4948 21.6256 35.1645 21.7027 34.9794 21.7427C34.5209 21.8342 34.3187 21.7484 33.8802 21.6342L32.1404 21.157L32.1261 21.1684L33.0402 22.3484C33.2424 22.6084 33.399 22.8027 33.7321 22.8342L33.7435 22.8484L32.8836 23.5199L32.8722 23.5056C32.9263 23.1684 32.7782 22.9684 32.576 22.7084L31.3829 21.1656C31.1152 20.8199 31.0042 20.7142 30.5571 20.6342L30.5457 20.6199L31.4712 19.897L31.4826 19.9113L34.2419 20.6427L33.3449 19.4827C33.1427 19.2227 32.9861 19.0284 32.6529 18.997L32.6415 18.9827L33.4958 18.3142L33.5072 18.3284C33.4588 18.6627 33.6069 18.8627 33.8062 19.1199L35.6514 21.5056V21.5027ZM39.1141 19.297C38.946 19.3999 38.6072 19.4427 38.4192 19.4599C37.9551 19.5027 37.7643 19.3942 37.34 19.2313L35.6628 18.5684L35.6486 18.577L36.4288 19.8484C36.5996 20.1284 36.7363 20.337 37.0638 20.4056L37.0723 20.4199L36.1469 20.9942L36.1383 20.9799C36.2266 20.6513 36.1013 20.437 35.9305 20.157L34.911 18.4942C34.6832 18.1227 34.5836 18.0056 34.1479 17.877L34.1393 17.8627L35.136 17.2456L35.1445 17.2599L37.807 18.2856L37.041 17.037C36.8702 16.757 36.7335 16.5484 36.406 16.4799L36.3975 16.4656L37.3172 15.8942L37.3258 15.9084C37.2404 16.2342 37.3656 16.4484 37.5365 16.7284L39.1141 19.297ZM39.9598 14.4742C41.0333 13.9684 42.1125 14.2227 42.6393 15.3513C43.1633 16.4713 42.5824 17.5399 41.5459 18.0284C40.498 18.5227 39.3675 18.2227 38.8606 17.1399C38.3509 16.0456 38.9233 14.9627 39.9598 14.4742ZM40.4723 17.3713C40.7315 17.5513 41.076 17.6256 41.3693 17.4884C41.6398 17.3599 41.8192 17.1056 41.8819 16.8084C41.9388 16.5313 41.8534 16.2513 41.7367 15.9999C41.4633 15.4142 40.8425 14.6856 40.142 15.017C39.5383 15.3027 39.544 16.0056 39.7918 16.537C39.9313 16.8342 40.2132 17.1827 40.4752 17.3742L40.4723 17.3713Z" fill="#F9ECD9"/>
<path d="M79.2392 13.9885C79.6094 14.0142 80.0024 14.1314 80.3327 14.2971C80.8851 14.5714 81.3635 15.2057 81.056 15.8371C80.8652 16.2257 80.401 16.5228 80.0479 16.7657L78.8662 17.4885L78.7466 17.5571C78.8776 17.6657 79.02 17.7485 79.1738 17.8257C79.561 18.0171 79.8885 18.0542 80.3213 18.0542L79.6521 18.7542L76.9612 17.42L78.5359 16.4171L79.3674 15.8342C79.5525 15.7057 79.823 15.5114 79.9227 15.3057C80.0394 15.0657 79.9255 14.8371 79.7034 14.7285C79.3731 14.5657 78.963 14.5971 78.6128 14.6571L79.2364 13.9914L79.2392 13.9885ZM80.9933 18.8085C80.9763 18.3028 81.1784 17.76 81.4376 17.34C81.691 16.9285 82.0612 16.5371 82.494 16.3057C82.981 16.0628 83.559 16.0685 84.026 16.3628C84.4617 16.6342 84.698 17.0514 84.7322 17.5628C84.7692 18.1085 84.5727 18.6171 84.2937 19.0742C84.026 19.5085 83.6587 19.9085 83.1974 20.1228C82.7304 20.3342 82.1609 20.3514 81.7195 20.0771C81.2866 19.8085 81.0104 19.3285 80.9933 18.8142V18.8085ZM83.391 18.4057C83.5789 18.1028 84.0801 17.2685 83.633 16.9885C83.4394 16.8685 83.166 17.0057 83.0094 17.1314C82.7475 17.3371 82.5196 17.6942 82.3431 17.9828C82.1665 18.2685 81.6796 19.1428 82.1039 19.4085C82.551 19.6885 83.2031 18.7142 83.3938 18.4057H83.391ZM86.4351 18.2171C86.791 18.3142 87.1555 18.5085 87.4488 18.7342C87.9386 19.1114 88.2831 19.8285 87.8588 20.3857C87.5969 20.7285 87.0843 20.9285 86.6913 21.1L85.3928 21.5771L85.2619 21.62C85.3701 21.7514 85.4925 21.8628 85.6292 21.9685C85.9709 22.2314 86.287 22.3314 86.7113 22.4171L85.9196 22.9714L83.5391 21.1371L85.2789 20.46L86.2072 20.0514C86.4123 19.96 86.717 19.8257 86.8537 19.6428C87.016 19.4314 86.9476 19.1857 86.7511 19.0342C86.4607 18.8085 86.0506 18.76 85.6975 18.7514L86.4379 18.22L86.4351 18.2171ZM87.184 22.9971C87.2836 23.32 87.4716 23.6657 87.7222 23.9028C88.081 24.2457 88.5764 24.2657 88.9238 23.8942C89.3424 23.4485 89.2171 22.9885 88.8014 22.5942C88.6135 22.4142 88.3913 22.2685 88.1635 22.1485L89.6841 20.6885L91.5151 22.4257L90.9456 23.0342L90.9314 23.02C90.8858 22.7057 90.5811 22.38 90.3505 22.1628C90.2252 22.0457 90.0828 21.9371 89.949 21.8257L89.3737 22.3828C89.4933 22.4428 89.593 22.52 89.6898 22.6114C90.2992 23.1885 90.4672 24.0514 89.8578 24.7C89.5674 25.0114 89.1203 25.16 88.7017 25.12C88.266 25.0742 87.8674 24.8457 87.5542 24.5485C87.2779 24.2857 87.0473 23.98 86.828 23.6771L87.1811 22.9942L87.184 22.9971Z" fill="#F9ECD9"/>
</g>
<defs>
<clipPath id="clip0_19_88">
<rect width="119.598" height="100" fill="white"/>
</clipPath>
</defs>
</svg>
